{"title":"The Transporter(2002)MPEG-4[DaScubaDude]","uid":13617295,"size":918011628,"categoryP":"video","categoryS":"movies","magnet":"?xt=urn:btih:589986447bb972e95a30f3408f1087e117efe7a1&amp;dn=The+Transporter%282002%29MPEG-4%5BDaScubaDude%5D&amp;tr=udp%3A%2F%2Ftracker.leechers-paradise.org%3A6969&amp;tr=udp%3A%2F%2Fzer0day.ch%3A1337&amp;tr=udp%3A%2F%2Fopen.demonii.com%3A1337&amp;tr=udp%3A%2F%2Ftracker.coppersurfer.tk%3A6969&amp;tr=udp%3A%2F%2Fexodus.desync.com%3A6969","seeders":0,"leechers":0,"uploader":"dascuba","files":1,"time":1455951064,"description":"The Transporter (2002)\r\nPG-13 | 1h 32min | Action, Crime, Thriller | 11 October 2002 (USA)\r\nFrank is hired to &quot;transport&quot; packages for unknown clients and has made a very good living doing so. But when asked to move a package that begins moving, complications arise.\r\nDirectors: Louis Leterrier, Corey Yuen (as Cory Yuen)\r\nWriters: Luc Besson, Robert Mark Kamen\r\nStars: Jason Statham, Qi Shu, Matt Schulze \r\n\r\nGeneral\r\nComplete name                            :The TransporterTHE_TRANSPORTER_SE_Title1.mp4\r\nFormat                                   : MPEG-4\r\nFormat profile                           : Base Media\r\nCodec ID                                 : isom\r\nFile size                                : 875 MiB\r\nDuration                                 : 1h 32mn\r\nOverall bit rate                         : 1 329 Kbps\r\nMovie name                               : THE_TRANSPORTER_SE\r\nGenre                                    : Action\r\nWriting application                      : Lavf54.6.100\r\n\r\nVideo\r\nID                                       : 1\r\nFormat                                   : AVC\r\nFormat/Info                              : Advanced Video Codec\r\nFormat profile                           :   \r\nFormat settings, CABAC                   : No\r\nFormat settings, ReFrames                : 6 frames\r\nCodec ID                                 : avc1\r\nCodec ID/Info                            : Advanced Video Coding\r\nDuration                                 : 1h 32mn\r\nBit rate                                 : 1 195 Kbps\r\nWidth                                    : 720 pixels\r\nHeight                                   : 404 pixels\r\nDisplay aspect ratio                     : 16:9\r\nFrame rate mode                          : Constant\r\nFrame rate                               : 29.970 fps\r\nColor space                              : YUV\r\nChroma subsampling                       : 4:2:0\r\nBit depth                                : 8 bits\r\nScan type                                : Progressive\r\nBits/(Pixel*Frame)                       : 0.137\r\nStream size                              : 787 MiB (90%)\r\n\r\nAudio\r\nID                                       : 2\r\nFormat                                   : AAC\r\nFormat/Info                              : Advanced Audio Codec\r\nFormat profile                           : LC\r\nCodec ID                                 : 40\r\nDuration                                 : 1h 32mn\r\nBit rate mode                            : Constant\r\nBit rate                                 : 128 Kbps\r\nChannel(s)                               : 2 channels\r\nChannel positions                        : Front: L R\r\nSampling rate                            : 44.1 KHz\r\nCompression mode                         : Lossy\r\nStream size                              : 84.3 MiB (10%)","torrent":{"xt":"urn:btih:589986447bb972e95a30f3408f1087e117efe7a1","amp;dn":"The+Transporter%282002%29MPEG-4%5BDaScubaDude%5D","amp;tr":["udp%3A%2F%2Ftracker.leechers-paradise.org%3A6969","udp%3A%2F%2Fzer0day.ch%3A1337","udp%3A%2F%2Fopen.demonii.com%3A1337","udp%3A%2F%2Ftracker.coppersurfer.tk%3A6969","udp%3A%2F%2Fexodus.desync.com%3A6969"],"infoHash":"589986447bb972e95a30f3408f1087e117efe7a1","infoHashBuffer":{"type":"Buffer","data":[88,153,134,68,123,185,114,233,90,48,243,64,143,16,135,225,23,239,231,161]},"announce":[],"urlList":[]}}